<?xml version="1.0" encoding="utf-8"?>
<!-- Generator: Adobe Illustrator 23.0.6, SVG Export Plug-In . SVG Version: 6.00 Build 0)  -->
<svg  
  class="sun-svg"
  xmlns="http://www.w3.org/2000/svg" xmlns:xlink="http://www.w3.org/1999/xlink" x="0px" y="0px"
	 viewBox="0 0 30 30" style="enable-background:new 0 0 30 30;" xml:space="preserve">
	<polygon class="sun-svg__sun" points="30,15 26.9,16.9 29.3,19.6 25.7,20.4 27.1,23.8 23.5,23.5 23.8,27.1 20.4,25.7 19.6,29.3 16.9,26.9 
		15,30 13.1,26.9 10.4,29.3 9.6,25.7 6.2,27.1 6.5,23.5 2.9,23.8 4.3,20.4 0.7,19.6 3.1,16.9 0,15 3.1,13.1 0.7,10.4 4.3,9.6 
		2.9,6.2 6.5,6.5 6.2,2.9 9.6,4.3 10.4,0.7 13.1,3.1 15,0 16.9,3.1 19.6,0.7 20.4,4.3 23.8,2.9 23.5,6.5 27.1,6.2 25.7,9.6 
		29.3,10.4 26.9,13.1 	"/>
	<path d="M15,4.3c5.9,0,10.8,4.8,10.8,10.8S20.9,25.8,15,25.8S4.3,20.9,4.3,15S9.1,4.3,15,4.3 M15,3.8C8.8,3.8,3.8,8.8,3.8,15
		s5,11.3,11.3,11.3s11.3-5,11.3-11.3S21.2,3.8,15,3.8L15,3.8z"/>
</svg>
