<svg
	xmlns="http://www.w3.org/2000/svg"
	viewBox="0 0 30 30"
	stroke="currentColor"
	fill="none">
	<path d="M15.3,27.3c-0.8,0-1.6-0.1-2.4-0.2c5-1.8,8.5-6.6,8.5-12c0-5.4-3.4-10.2-8.5-12c0.8-0.2,1.6-0.2,2.4-0.2
			C22,2.8,27.5,8.2,27.5,15S22,27.3,15.3,27.3z"/>
	<path d="M15.3,3c6.6,0,12,5.4,12,12s-5.4,12-12,12c-0.5,0-1,0-1.5-0.1c4.7-2,7.8-6.7,7.8-11.9c0-5.2-3.1-9.9-7.8-11.9
			C14.3,3,14.8,3,15.3,3 M15.3,2.5c-1.2,0-2.3,0.2-3.3,0.5c5.3,1.5,9.2,6.3,9.2,12s-3.9,10.6-9.2,12c1.1,0.3,2.2,0.5,3.3,0.5
			c6.9,0,12.5-5.6,12.5-12.5S22.2,2.5,15.3,2.5L15.3,2.5z"/>
	<circle cx="12.3" cy="14.6" r="2.1"/>
	<line x1="12.3" y1="3.3" x2="12.3" y2="12.5"/>
</svg>
